<svg width="36" height="36" viewBox="0 0 36 36" fill="none" xmlns="http://www.w3.org/2000/svg">
<path d="M21.17 8.23719H24.5126C24.6603 8.23719 24.802 8.17934 24.9065 8.07635C25.011 7.97337 25.0697 7.83369 25.0697 7.68805V3.29487C25.0697 3.14923 25.011 3.00955 24.9065 2.90657C24.802 2.80358 24.6603 2.74573 24.5126 2.74573H21.17C21.0222 2.74573 20.8805 2.80358 20.776 2.90657C20.6715 3.00955 20.6129 3.14923 20.6129 3.29487V7.68805C20.6129 7.83369 20.6715 7.97337 20.776 8.07635C20.8805 8.17934 21.0222 8.23719 21.17 8.23719ZM21.7271 3.84402H23.9555V7.1389H21.7271V3.84402Z" fill="#E5E5E5"/>
<path d="M14.4847 8.78632H11.1421C10.9943 8.78632 10.8526 8.84417 10.7482 8.94716C10.6437 9.05014 10.585 9.18982 10.585 9.33546V13.7286C10.585 13.8743 10.6437 14.014 10.7482 14.1169C10.8526 14.2199 10.9943 14.2778 11.1421 14.2778H14.4847C14.6325 14.2778 14.7742 14.2199 14.8787 14.1169C14.9831 14.014 15.0418 13.8743 15.0418 13.7286V9.33546C15.0418 9.18982 14.9831 9.05014 14.8787 8.94716C14.7742 8.84417 14.6325 8.78632 14.4847 8.78632ZM13.9276 13.1795H11.6992V9.88461H13.9276V13.1795Z" fill="#E5E5E5"/>
<path d="M14.4847 14.8269H11.1421C10.9943 14.8269 10.8526 14.8848 10.7482 14.9877C10.6437 15.0907 10.585 15.2304 10.585 15.3761V19.7692C10.585 19.9149 10.6437 20.0545 10.7482 20.1575C10.8526 20.2605 10.9943 20.3184 11.1421 20.3184H14.4847C14.6325 20.3184 14.7742 20.2605 14.8787 20.1575C14.9831 20.0545 15.0418 19.9149 15.0418 19.7692V15.3761C15.0418 15.2304 14.9831 15.0907 14.8787 14.9877C14.7742 14.8848 14.6325 14.8269 14.4847 14.8269ZM13.9276 19.2201H11.6992V15.9252H13.9276V19.2201Z" fill="#E5E5E5"/>
<path d="M19.4987 8.78632H16.156C16.0083 8.78632 15.8666 8.84417 15.7621 8.94716C15.6576 9.05014 15.5989 9.18982 15.5989 9.33546V13.7286C15.5989 13.8743 15.6576 14.014 15.7621 14.1169C15.8666 14.2199 16.0083 14.2778 16.156 14.2778H19.4987C19.6464 14.2778 19.7881 14.2199 19.8926 14.1169C19.9971 14.014 20.0558 13.8743 20.0558 13.7286V9.33546C20.0558 9.18982 19.9971 9.05014 19.8926 8.94716C19.7881 8.84417 19.6464 8.78632 19.4987 8.78632ZM18.9416 13.1795H16.7131V9.88461H18.9416V13.1795Z" fill="#E5E5E5"/>
<path d="M24.5126 24.1624H23.3984V26.359H24.5126V24.1624Z" fill="#E5E5E5"/>
<path d="M24.5126 27.4573H23.3984V28.5556H24.5126V27.4573Z" fill="#E5E5E5"/>
<path d="M10.7591 7.23594C10.4486 7.52687 10.0364 7.68876 9.60798 7.68802C9.57316 7.68802 9.53897 7.687 9.50506 7.68494C9.42915 7.68033 9.3531 7.69108 9.28157 7.71654C9.21004 7.742 9.14456 7.78163 9.08916 7.83298C9.03376 7.88433 8.98961 7.94632 8.95943 8.01512C8.92926 8.08393 8.91369 8.15809 8.91369 8.23305V33.4979C8.91369 33.6436 8.97238 33.7832 9.07686 33.8862C9.18134 33.9892 9.32304 34.0471 9.47079 34.0471H26.1839C26.3317 34.0471 26.4734 33.9892 26.5779 33.8862C26.6824 33.7832 26.7411 33.6436 26.7411 33.4979V17.3629L32.0042 14.7689C32.0762 14.7334 32.1395 14.683 32.1898 14.621C32.2402 14.5591 32.2763 14.4871 32.2957 14.4101C32.3151 14.3331 32.3173 14.2529 32.3022 14.1749C32.2872 14.097 32.2551 14.0232 32.2083 13.9586L26.7411 6.41373V2.60842C26.7406 2.20804 26.579 1.82419 26.2918 1.54108C26.0046 1.25797 25.6152 1.09872 25.209 1.09827H16.78C16.6564 1.09826 16.5363 1.13877 16.4386 1.21342C16.341 1.28807 16.2712 1.39262 16.2405 1.51061C16.148 1.86433 15.9387 2.17767 15.6457 2.40127C15.3527 2.62488 14.9925 2.74606 14.6219 2.74571C14.5423 2.74548 14.4628 2.73972 14.384 2.72848C14.2604 2.71122 14.1345 2.73541 14.0264 2.79716C13.9184 2.85892 13.8346 2.95466 13.7884 3.06902C13.7874 3.07108 13.7865 3.07313 13.7856 3.07519C13.784 3.0789 13.7824 3.08261 13.7808 3.08638L13.7798 3.08872C13.5811 3.5693 13.2864 4.00556 12.9131 4.37153C12.5399 4.73749 12.0957 5.02568 11.6071 5.21892C11.4911 5.26453 11.3941 5.34719 11.3315 5.45365C11.2689 5.56011 11.2444 5.68421 11.262 5.80603C11.2733 5.88372 11.2791 5.9621 11.2793 6.04059C11.2801 6.26431 11.2344 6.48582 11.1449 6.69142C11.0554 6.89703 10.9241 7.08235 10.7591 7.23594ZM11.6992 22.8726V21.9658H12.8918L11.6992 22.8726ZM15.1733 23.0641H25.6268V29.6539H10.0279V25.6001L15.1733 23.0641ZM25.0697 32.9488V31.8505H23.9555V32.9488H22.8413V31.8505H21.7271V32.9488H20.6129V31.8505H19.4987V32.9488H18.3845V31.8505H17.2703V32.9488H16.1561V31.8505H15.0418V32.9488H13.9276V31.8505H12.8134V32.9488H11.6992V31.8505H10.585V32.9488H10.0279V30.7522H25.6268V32.9488H25.0697ZM25.6268 21.9658H17.4017L20.8929 20.2452C20.9772 20.2932 21.0727 20.3184 21.17 20.3184H24.5126C24.6604 20.3184 24.8021 20.2605 24.9066 20.1576C25.011 20.0546 25.0697 19.9149 25.0697 19.7692V18.1866L25.6268 17.912V21.9658ZM22.9728 19.2201L23.9555 18.7358V19.2201H22.9728ZM14.3586 22.2377L28.8521 11.2163L30.9227 14.0738L14.3586 22.2377ZM18.9416 17.3655L16.7132 19.06V15.9252H18.9416V17.3655ZM23.9555 13.1795H21.7271V9.88461H23.9555V13.1795ZM28.204 10.3222L26.7411 11.4347V8.30334L28.204 10.3222ZM25.209 2.19656C25.3198 2.19667 25.426 2.2401 25.5043 2.31731C25.5827 2.39453 25.6267 2.49922 25.6268 2.60842V12.282L25.0697 12.7056V9.33546C25.0697 9.18982 25.011 9.05014 24.9066 8.94716C24.8021 8.84417 24.6604 8.78632 24.5126 8.78632H21.17C21.0222 8.78632 20.8805 8.84417 20.7761 8.94716C20.6716 9.05014 20.6129 9.18982 20.6129 9.33546V13.7286C20.6129 13.8743 20.6716 14.014 20.7761 14.1169C20.8805 14.2199 21.0222 14.2778 21.17 14.2778H23.0022L22.28 14.8269H21.17C21.0222 14.8269 20.8805 14.8848 20.7761 14.9878C20.6716 15.0908 20.6129 15.2304 20.6129 15.3761V16.0946L20.0558 16.5182V15.3761C20.0558 15.2304 19.9971 15.0908 19.8926 14.9878C19.7881 14.8848 19.6464 14.8269 19.4987 14.8269H16.1561C16.0083 14.8269 15.8666 14.8848 15.7621 14.9878C15.6576 15.0908 15.599 15.2304 15.599 15.3761V19.7692C15.5991 19.8118 15.6043 19.8542 15.6143 19.8956L14.3361 20.8675H11.1421C10.9944 20.8675 10.8527 20.9254 10.7482 21.0284C10.6437 21.1314 10.585 21.271 10.585 21.4167V23.7199L10.0279 24.1435V8.75529C10.4813 8.68722 10.9105 8.50918 11.2769 8.23717H14.4847C14.6325 8.23717 14.7742 8.17932 14.8787 8.07633C14.9832 7.97335 15.0418 7.83367 15.0418 7.68802V3.81215C15.2321 3.78353 15.4188 3.73547 15.599 3.66875V7.68802C15.599 7.83367 15.6576 7.97335 15.7621 8.07633C15.8666 8.17932 16.0083 8.23717 16.1561 8.23717H19.4987C19.6464 8.23717 19.7881 8.17932 19.8926 8.07633C19.9971 7.97335 20.0558 7.83367 20.0558 7.68802V3.29485C20.0558 3.14921 19.9971 3.00953 19.8926 2.90655C19.7881 2.80356 19.6464 2.74571 19.4987 2.74571H16.8501C16.98 2.57579 17.0894 2.39149 17.1758 2.19656H25.209ZM16.7132 3.844H18.9416V7.13888H16.7132V3.844ZM13.9276 4.90845V7.13888H12.1634C12.3115 6.80272 12.3897 6.44065 12.3932 6.07415C12.9762 5.78688 13.4973 5.39103 13.9276 4.90845Z" fill="#E5E5E5"/>
</svg>
