<svg width="120" height="118" viewBox="0 0 120 118" fill="none" xmlns="http://www.w3.org/2000/svg">
<path d="M71.0714 27.5301H82.2932C82.7893 27.5301 83.265 27.3367 83.6157 26.9925C83.9665 26.6483 84.1635 26.1815 84.1635 25.6947V11.012C84.1635 10.5252 83.9665 10.0584 83.6157 9.7142C83.265 9.37 82.7893 9.17664 82.2932 9.17664H71.0714C70.5754 9.17664 70.0997 9.37 69.7489 9.7142C69.3982 10.0584 69.2011 10.5252 69.2011 11.012V25.6947C69.2011 26.1815 69.3982 26.6483 69.7489 26.9925C70.0997 27.3367 70.5754 27.5301 71.0714 27.5301ZM72.9417 12.8473H80.4229V23.8594H72.9417V12.8473Z" fill="#632F1A"/>
<path d="M48.6278 29.3655H37.406C36.9099 29.3655 36.4342 29.5588 36.0835 29.903C35.7327 30.2472 35.5357 30.7141 35.5357 31.2008V45.8836C35.5357 46.3703 35.7327 46.8372 36.0835 47.1813C36.4342 47.5255 36.9099 47.7189 37.406 47.7189H48.6278C49.1238 47.7189 49.5995 47.5255 49.9503 47.1813C50.301 46.8372 50.4981 46.3703 50.4981 45.8836V31.2008C50.4981 30.7141 50.301 30.2472 49.9503 29.903C49.5995 29.5588 49.1238 29.3655 48.6278 29.3655ZM46.7575 44.0482H39.2763V33.0362H46.7575V44.0482Z" fill="#632F1A"/>
<path d="M48.6278 49.5542H37.406C36.9099 49.5542 36.4342 49.7476 36.0835 50.0918C35.7327 50.436 35.5357 50.9028 35.5357 51.3895V66.0723C35.5357 66.559 35.7327 67.0259 36.0835 67.3701C36.4342 67.7143 36.9099 67.9076 37.406 67.9076H48.6278C49.1238 67.9076 49.5995 67.7143 49.9503 67.3701C50.301 67.0259 50.4981 66.559 50.4981 66.0723V51.3895C50.4981 50.9028 50.301 50.436 49.9503 50.0918C49.5995 49.7476 49.1238 49.5542 48.6278 49.5542ZM46.7575 64.2369H39.2763V53.2249H46.7575V64.2369Z" fill="#632F1A"/>
<path d="M65.4605 29.3655H54.2387C53.7427 29.3655 53.267 29.5588 52.9162 29.903C52.5655 30.2472 52.3684 30.7141 52.3684 31.2008V45.8836C52.3684 46.3703 52.5655 46.8372 52.9162 47.1813C53.267 47.5255 53.7427 47.7189 54.2387 47.7189H65.4605C65.9566 47.7189 66.4323 47.5255 66.783 47.1813C67.1338 46.8372 67.3308 46.3703 67.3308 45.8836V31.2008C67.3308 30.7141 67.1338 30.2472 66.783 29.903C66.4323 29.5588 65.9566 29.3655 65.4605 29.3655ZM63.5902 44.0482H56.109V33.0362H63.5902V44.0482Z" fill="#632F1A"/>
<path d="M82.2932 80.755H78.5526V88.0964H82.2932V80.755Z" fill="#632F1A"/>
<path d="M82.2932 91.7671H78.5526V95.4378H82.2932V91.7671Z" fill="#632F1A"/>
<path d="M36.1202 24.1838C35.0778 25.1561 33.6939 25.6972 32.2557 25.6948C32.1388 25.6948 32.024 25.6913 31.9102 25.6844C31.6553 25.669 31.4 25.705 31.1599 25.7901C30.9198 25.8752 30.6999 26.0076 30.5139 26.1792C30.3279 26.3508 30.1797 26.558 30.0784 26.788C29.9771 27.0179 29.9248 27.2658 29.9248 27.5163V111.956C29.9248 112.443 30.1219 112.909 30.4726 113.254C30.8234 113.598 31.2991 113.791 31.7951 113.791H87.9042C88.4002 113.791 88.8759 113.598 89.2267 113.254C89.5774 112.909 89.7745 112.443 89.7745 111.956V58.0298L107.444 49.3604C107.685 49.2417 107.898 49.0731 108.067 48.8661C108.236 48.6591 108.357 48.4186 108.422 48.1612C108.487 47.9038 108.495 47.6356 108.444 47.3751C108.394 47.1146 108.286 46.8679 108.129 46.6521L89.7745 21.4359V8.71785C89.7729 7.37971 89.2305 6.09682 88.2663 5.15062C87.3021 4.20442 85.9948 3.67217 84.6311 3.67065H56.3335C55.9186 3.67064 55.5154 3.80604 55.1875 4.05552C54.8595 4.30501 54.6255 4.65442 54.5221 5.04877C54.2116 6.23096 53.5091 7.27819 52.5254 8.02553C51.5416 8.77287 50.3325 9.17785 49.0884 9.17668C48.8212 9.17591 48.5543 9.15667 48.2898 9.1191C47.8747 9.06141 47.4519 9.14226 47.0892 9.34865C46.7266 9.55505 46.4451 9.87503 46.29 10.2572C46.2867 10.2641 46.2839 10.271 46.2809 10.2779C46.2752 10.2903 46.2699 10.3027 46.2645 10.3153L46.2612 10.3231C45.5943 11.9293 44.6048 13.3873 43.3516 14.6105C42.0985 15.8336 40.6074 16.7967 38.967 17.4426C38.5778 17.595 38.252 17.8713 38.0419 18.2271C37.8318 18.5829 37.7496 18.9977 37.8084 19.4048C37.8465 19.6645 37.866 19.9264 37.8666 20.1887C37.8694 20.9365 37.7159 21.6768 37.4155 22.3639C37.1151 23.0511 36.6742 23.6705 36.1202 24.1838ZM39.2763 76.4443V73.4137H43.28L39.2763 76.4443ZM50.9395 77.0844H86.0339V99.1085H33.6654V85.56L50.9395 77.0844ZM84.1636 110.121V106.45H80.423V110.121H76.6824V106.45H72.9418V110.121H69.2012V106.45H65.4606V110.121H61.72V106.45H57.9794V110.121H54.2388V106.45H50.4981V110.121H46.7575V106.45H43.0169V110.121H39.2763V106.45H35.5357V110.121H33.6654V102.779H86.0339V110.121H84.1636ZM86.0339 73.4137H58.4207L70.1412 67.6631C70.4241 67.8233 70.7449 67.9076 71.0715 67.9076H82.2933C82.7893 67.9076 83.265 67.7143 83.6158 67.3701C83.9665 67.0259 84.1636 66.5591 84.1636 66.0723V60.7828L86.0339 59.8652V73.4137ZM77.1238 64.237L80.423 62.6182V64.237H77.1238ZM48.2042 74.3224L96.8618 37.4868L103.813 47.037L48.2042 74.3224ZM63.5903 58.0385L56.1091 63.7017V53.2249H63.5903V58.0385ZM80.423 44.0482H72.9418V33.0361H80.423V44.0482ZM94.6859 34.4987L89.7745 38.2168V27.7513L94.6859 34.4987ZM84.6311 7.34134C85.0031 7.3417 85.3596 7.48684 85.6226 7.74491C85.8856 8.00298 86.0335 8.35289 86.0339 8.71785V41.0485L84.1636 42.4643V31.2008C84.1636 30.714 83.9665 30.2472 83.6158 29.903C83.265 29.5588 82.7893 29.3654 82.2933 29.3654H71.0715C70.5754 29.3654 70.0997 29.5588 69.749 29.903C69.3982 30.2472 69.2012 30.714 69.2012 31.2008V45.8835C69.2012 46.3703 69.3982 46.8371 69.749 47.1813C70.0997 47.5255 70.5754 47.7189 71.0715 47.7189H77.2224L74.7978 49.5542H71.0715C70.5754 49.5542 70.0997 49.7476 69.749 50.0918C69.3982 50.436 69.2012 50.9028 69.2012 51.3896V53.7911L67.3309 55.2068V51.3896C67.3309 50.9028 67.1338 50.436 66.7831 50.0918C66.4323 49.7476 65.9566 49.5542 65.4606 49.5542H54.2388C53.7427 49.5542 53.267 49.7476 52.9162 50.0918C52.5655 50.436 52.3685 50.9028 52.3685 51.3896V66.0723C52.369 66.2145 52.3864 66.3561 52.4201 66.4944L48.1287 69.743H37.406C36.91 69.743 36.4343 69.9363 36.0835 70.2805C35.7328 70.6247 35.5357 71.0916 35.5357 71.5783V79.276L33.6654 80.6919V29.2618C35.1877 29.0342 36.6285 28.4392 37.8584 27.5301H48.6278C49.1239 27.5301 49.5996 27.3367 49.9504 26.9925C50.3011 26.6484 50.4981 26.1815 50.4981 25.6948V12.7409C51.1368 12.6453 51.7636 12.4846 52.3685 12.2617V25.6948C52.3685 26.1815 52.5655 26.6484 52.9162 26.9925C53.267 27.3367 53.7427 27.5301 54.2388 27.5301H65.4606C65.9566 27.5301 66.4323 27.3367 66.7831 26.9925C67.1338 26.6484 67.3309 26.1815 67.3309 25.6948V11.012C67.3309 10.5253 67.1338 10.0584 66.7831 9.71424C66.4323 9.37005 65.9566 9.17668 65.4606 9.17668H56.5689C57.005 8.6088 57.372 7.99284 57.6623 7.34134H84.6311ZM56.1091 12.8474H63.5903V23.8594H56.1091V12.8474ZM46.7575 16.4049V23.8594H40.8345C41.3319 22.7359 41.5943 21.5258 41.606 20.3009C43.5634 19.3408 45.3128 18.0178 46.7575 16.4049Z" fill="#632F1A"/>
</svg>
